{
.appVersion = "983";
copyright = "Copyright 2016 Google Inc. All Rights Reserved.";
customParameters = (
{
name = description;
value = "Designed by Monotype design team.";
},
{
name = license;
value = "This Font Software is licensed under the SIL Open Font License, Version 1.1. This Font Software is distributed on an \"AS IS\" BASIS, WITHOUT WARRANTIES OR CONDITIONS OF ANY KIND, either express or implied. See the SIL Open Font License for the specific language, permissions and limitations governing your use of this Font Software.";
},
{
name = licenseURL;
value = "http://scripts.sil.org/OFL";
},
{
name = vendorID;
value = GOOG;
},
{
name = trademark;
value = "Noto is a trademark of Google Inc.";
},
{
name = fsType;
value = (
);
},
{
name = panose;
value = (
2,
11,
5,
2,
4,
5,
4,
2,
2,
4
);
},
{
name = unicodeRanges;
value = (
57
);
},
{
name = codePageRanges;
value = (
1252
);
},
{
name = glyphOrder;
value = (
.notdef,
null,
uni000D,
space,
uni10B40,
uni10B41,
uni10B42,
uni10B43,
uni10B44,
uni10B45,
uni10B46,
uni10B47,
uni10B48,
uni10B49,
uni10B4A,
uni10B4B,
uni10B4C,
uni10B4D,
uni10B4E,
uni10B4F,
uni10B50,
uni10B51,
uni10B52,
uni10B53,
uni10B54,
uni10B55,
uni10B58,
uni10B59,
uni10B5A,
uni10B5B,
uni10B5C,
uni10B5D,
uni10B5E,
uni10B5F,
uni10B4D.alt01,
uni10B4D10B4D,
uni10B51.alt01,
uni10B4210B45,
uni10B4710B45,
uni10B4910B45,
uni10B4D10B45,
uni10B4F10B4B,
uni10B5310B45,
uni10B5510B45,
uni10B4D10B43
);
}
);
date = "2016-11-10 11:35:53 +0000";
designer = "Monotype Design Team";
designerURL = "http://www.monotype.com/studio";
disablesNiceNames = 1;
familyName = "Noto Sans Inscriptional Parthian";
features = (
{

glyphs = (
{
glyphname = .notdef;
lastChange = "2016-11-10 13:50:37 +0000";
layers = (
{
layerId = "4949C6E7-4176-455B-BA60-8247DAE0A971";
paths = (
{
closed = 1;
nodes = (
"1034 0 LINE",
"1034 1462 LINE",
"193 1462 LINE",
"193 0 LINE"
);
},
{
closed = 1;
nodes = (
"297 1358 LINE",
"930 1358 LINE",
"930 104 LINE",
"297 104 LINE"
);
}
);
width = 1229;
}
);
note = .notdef;
},
{
glyphname = uni10B40;
lastChange = "2016-11-10 13:50:37 +0000";
layers = (
{
layerId = "4949C6E7-4176-455B-BA60-8247DAE0A971";
paths = (
{
closed = 1;
nodes = (
"1356 0 LINE",
"1356 1098 LINE",
"1176 1098 LINE",
"1176 152 LINE",
"1028 152 LINE",
"537 1098 LINE",
"332 1098 LINE",
"842 152 LINE",
"10 152 LINE",
"10 0 LINE"
);
}
);
width = 1530;
}
);
note = uni10B40;
},
{
glyphname = uni10B41;
lastChange = "2016-11-10 13:50:37 +0000";
layers = (
{
layerId = "4949C6E7-4176-455B-BA60-8247DAE0A971";
paths = (
{
closed = 1;
nodes = (
"1016 0 LINE SMOOTH",
"1473 0 OFFCURVE",
"1716 203 OFFCURVE",
"1716 600 CURVE SMOOTH",
"1716 941 OFFCURVE",
"1553 1116 OFFCURVE",
"1237 1116 CURVE SMOOTH",
"1161 1116 OFFCURVE",
"1069 1095 OFFCURVE",
"960 1054 CURVE SMOOTH",
"851 1012 OFFCURVE",
"745 991 OFFCURVE",
"641 991 CURVE SMOOTH",
"503 991 OFFCURVE",
"400 1040 OFFCURVE",
"332 1137 CURVE",
"213 1030 LINE",
"324 895 OFFCURVE",
"461 840 OFFCURVE",
"641 840 CURVE SMOOTH",
"764 840 OFFCURVE",
"879 861 OFFCURVE",
"986 903 CURVE SMOOTH",
"1087 943 OFFCURVE",
"1165 965 OFFCURVE",
"1233 965 CURVE SMOOTH",
"1430 965 OFFCURVE",
"1530 842 OFFCURVE",
"1530 614 CURVE SMOOTH",
"1530 290 OFFCURVE",
"1379 152 OFFCURVE",
"1018 152 CURVE SMOOTH",
"31 152 LINE",
"31 0 LINE"
);
}
);
width = 1786;
}
);
note = uni10B41;
},
{
glyphname = uni10B42;
lastChange = "2016-11-10 13:50:37 +0000";
layers = (
{
layerId = "4949C6E7-4176-455B-BA60-8247DAE0A971";
paths = (
{
closed = 1;
nodes = (
"63 -20 LINE SMOOTH",
"272 -20 OFFCURVE",
"456 25 OFFCURVE",
"615 115 CURVE SMOOTH",
"933 295 OFFCURVE",
"1132 655 OFFCURVE",
"1153 1098 CURVE",
"995 1098 LINE",
"853 879 OFFCURVE",
"659 770 OFFCURVE",
"412 770 CURVE SMOOTH",
"288 770 OFFCURVE",
"196 805 OFFCURVE",
"125 913 CURVE",
"0 811 LINE",
"95 671 OFFCURVE",
"215 616 OFFCURVE",
"412 616 CURVE SMOOTH",
"614 616 OFFCURVE",
"789 684 OFFCURVE",
"938 821 CURVE",
"825 392 OFFCURVE",
"491 131 OFFCURVE",
"31 131 CURVE",
"31 -20 LINE"
);
}
);
width = 1239;
}
);
note = uni10B42;
},
{
glyphname = uni10B43;
lastChange = "2016-11-10 13:50:37 +0000";
layers = (
{
layerId = "4949C6E7-4176-455B-BA60-8247DAE0A971";
paths = (
{
closed = 1;
nodes = (
"176 78 LINE SMOOTH",
"417 78 OFFCURVE",
"610 103 OFFCURVE",
"755 154 CURVE SMOOTH",
"1045 254 OFFCURVE",
"1191 459 OFFCURVE",
"1243 858 CURVE",
"725 858 LINE SMOOTH",
"623 858 OFFCURVE",
"547 865 OFFCURVE",
"496 880 CURVE SMOOTH",
"394 909 OFFCURVE",
"352 970 OFFCURVE",
"352 1098 CURVE",
"172 1098 LINE",
"172 1001 OFFCURVE",
"190 924 OFFCURVE",
"227 869 CURVE SMOOTH",
"300 758 OFFCURVE",
"454 707 OFFCURVE",
"727 707 CURVE SMOOTH",
"1028 707 LINE",
"957 368 OFFCURVE",
"727 229 OFFCURVE",
"223 229 CURVE SMOOTH",
"78 229 LINE",
"78 78 LINE"
);
},
{
closed = 1;
nodes = (
"180 -264 LINE",
"199 -193 OFFCURVE",
"274 -158 OFFCURVE",
"371 -158 CURVE SMOOTH",
"478 -158 OFFCURVE",
"541 -193 OFFCURVE",
"561 -264 CURVE",
"684 -264 LINE",
"660 -105 OFFCURVE",
"550 -16 OFFCURVE",
"373 -16 CURVE SMOOTH",
"204 -16 OFFCURVE",
"78 -112 OFFCURVE",
"57 -264 CURVE"
);
}
);
width = 1339;
}
);
note = uni10B43;
},
{
glyphname = uni10B44;
lastChange = "2016-11-10 13:50:37 +0000";
layers = (
{
layerId = "4949C6E7-4176-455B-BA60-8247DAE0A971";
paths = (
{
closed = 1;
nodes = (
"656 -20 OFFCURVE",
"807 178 OFFCURVE",
"807 510 CURVE",
"1137 510 LINE",
"1137 0 LINE",
"1317 0 LINE",
"1317 1098 LINE",
"1137 1098 LINE",
"1137 662 LINE",
"807 662 LINE",
"807 1098 LINE",
"627 1098 LINE",
"627 662 LINE",
"541 662 LINE SMOOTH",
"238 662 OFFCURVE",
"86 540 OFFCURVE",
"86 287 CURVE SMOOTH",
"86 92 OFFCURVE",
"206 -20 OFFCURVE",
"401 -20 CURVE SMOOTH"
);
},
{
closed = 1;
nodes = (
"320 131 OFFCURVE",
"272 191 OFFCURVE",
"272 291 CURVE SMOOTH",
"272 447 OFFCURVE",
"356 510 OFFCURVE",
"547 510 CURVE SMOOTH",
"627 510 LINE",
"627 255 OFFCURVE",
"547 131 OFFCURVE",
"408 131 CURVE SMOOTH"
);
}
);
width = 1491;
}
);
note = uni10B44;
},
{
glyphname = uni10B45;
lastChange = "2016-11-10 13:47:56 +0000";
layers = (
{
layerId = "4949C6E7-4176-455B-BA60-8247DAE0A971";
paths = (
{
closed = 1;
nodes = (
"412 -20 LINE SMOOTH",
"545 -20 OFFCURVE",
"663 6 OFFCURVE",
"766 59 CURVE SMOOTH",
"971 164 OFFCURVE",
"1087 368 OFFCURVE",
"1087 625 CURVE SMOOTH",
"1087 922 OFFCURVE",
"897 1118 OFFCURVE",
"612 1118 CURVE SMOOTH",
"295 1118 OFFCURVE",
"98 934 OFFCURVE",
"74 618 CURVE",
"254 618 LINE",
"270 838 OFFCURVE",
"389 967 OFFCURVE",
"610 967 CURVE SMOOTH",
"777 967 OFFCURVE",
"901 824 OFFCURVE",
"901 625 CURVE SMOOTH",
"901 313 OFFCURVE",
"725 139 OFFCURVE",
"416 139 CURVE SMOOTH",
"360 139 LINE",
"360 -20 LINE"
);
}
);
width = 1200;
}
);
note = uni10B45;
},
{
glyphname = uni10B46;
lastChange = "2016-11-10 13:50:37 +0000";
layers = (
{
layerId = "4949C6E7-4176-455B-BA60-8247DAE0A971";
paths = (
{
closed = 1;
nodes = (
"396 -20 OFFCURVE",
"504 91 OFFCURVE",
"504 270 CURVE SMOOTH",
"504 355 OFFCURVE",
"478 426 OFFCURVE",
"451 489 CURVE SMOOTH",
"423 552 OFFCURVE",
"397 606 OFFCURVE",
"397 659 CURVE SMOOTH",
"397 768 OFFCURVE",
"442 866 OFFCURVE",
"594 1006 CURVE",
"459 1118 LINE",
"298 957 OFFCURVE",
"217 802 OFFCURVE",
"217 655 CURVE SMOOTH",
"217 596 OFFCURVE",
"243 534 OFFCURVE",
"271 469 CURVE SMOOTH",
"298 404 OFFCURVE",
"324 337 OFFCURVE",
"324 268 CURVE SMOOTH",
"324 187 OFFCURVE",
"272 131 OFFCURVE",
"188 131 CURVE SMOOTH",
"125 131 OFFCURVE",
"75 139 OFFCURVE",
"39 156 CURVE",
"39 4 LINE",
"67 -7 OFFCURVE",
"150 -20 OFFCURVE",
"217 -20 CURVE SMOOTH"
);
}
);
width = 672;
}
);
note = uni10B46;
},
{
glyphname = uni10B47;
lastChange = "2016-11-10 13:50:37 +0000";
layers = (
{
layerId = "4949C6E7-4176-455B-BA60-8247DAE0A971";
paths = (
{
closed = 1;
nodes = (
"112 -20 OFFCURVE",
"208 10 OFFCURVE",
"309 70 CURVE SMOOTH",
"509 189 OFFCURVE",
"669 406 OFFCURVE",
"721 623 CURVE",
"782 250 OFFCURVE",
"1031 0 OFFCURVE",
"1352 0 CURVE SMOOTH",
"1530 0 LINE",
"1530 1098 LINE",
"1350 1098 LINE",
"1350 152 LINE",
"1252 152 OFFCURVE",
"1162 191 OFFCURVE",
"1081 268 CURVE SMOOTH",
"918 423 OFFCURVE",
"818 719 OFFCURVE",
"811 1098 CURVE",
"631 1098 LINE",
"631 830 OFFCURVE",
"563 590 OFFCURVE",
"447 418 CURVE SMOOTH",
"330 246 OFFCURVE",
"159 131 OFFCURVE",
"20 131 CURVE",
"20 -20 LINE"
);
}
);
width = 1704;
}
);
note = uni10B47;
},
{
glyphname = uni10B48;
lastChange = "2016-11-10 13:50:37 +0000";
layers = (
{
layerId = "4949C6E7-4176-455B-BA60-8247DAE0A971";
paths = (
{
closed = 1;
nodes = (
"975 0 LINE SMOOTH",
"1339 0 OFFCURVE",
"1565 317 OFFCURVE",
"1585 858 CURVE",
"1235 858 LINE SMOOTH",
"1176 858 OFFCURVE",
"1135 865 OFFCURVE",
"1112 880 CURVE",
"1065 908 OFFCURVE",
"1047 969 OFFCURVE",
"1047 1098 CURVE",
"866 1098 LINE",
"866 814 OFFCURVE",
"964 700 OFFCURVE",
"1208 700 CURVE SMOOTH",
"1386 700 LINE",
"1345 339 OFFCURVE",
"1204 152 OFFCURVE",
"971 152 CURVE SMOOTH",
"877 152 LINE",
"877 0 LINE"
);
},
{
closed = 1;
nodes = (
"213 0 LINE SMOOTH",
"585 0 OFFCURVE",
"806 302 OFFCURVE",
"827 858 CURVE",
"477 858 LINE SMOOTH",
"420 858 OFFCURVE",
"380 865 OFFCURVE",
"356 879 CURVE SMOOTH",
"307 906 OFFCURVE",
"289 966 OFFCURVE",
"289 1098 CURVE",
"109 1098 LINE",
"109 814 OFFCURVE",
"206 700 OFFCURVE",
"451 700 CURVE SMOOTH",
"629 700 LINE",
"600 343 OFFCURVE",
"444 152 OFFCURVE",
"211 152 CURVE SMOOTH",
"119 152 LINE",
"119 0 LINE"
);
}
);
width = 1671;
}
);
note = uni10B48;
},
{
glyphname = uni10B49;
lastChange = "2016-11-10 13:50:37 +0000";
layers = (
{
layerId = "4949C6E7-4176-455B-BA60-8247DAE0A971";
paths = (
{
closed = 1;
nodes = (
"297 -16 OFFCURVE",
"430 129 OFFCURVE",
"430 418 CURVE SMOOTH",
"430 1098 LINE",
"250 1098 LINE",
"250 418 LINE SMOOTH",
"250 219 OFFCURVE",
"185 135 OFFCURVE",
"41 135 CURVE",
"41 -16 LINE"
);
}
);
width = 594;
}
);
note = uni10B49;
},
{
glyphname = uni10B4A;
lastChange = "2016-11-10 13:50:37 +0000";
layers = (
{
layerId = "4949C6E7-4176-455B-BA60-8247DAE0A971";
paths = (
{
closed = 1;
nodes = (
"735 0 LINE SMOOTH",
"1311 0 OFFCURVE",
"1637 322 OFFCURVE",
"1669 858 CURVE",
"1149 858 LINE SMOOTH",
"1001 858 OFFCURVE",
"946 929 OFFCURVE",
"946 1098 CURVE",
"766 1098 LINE",
"766 823 OFFCURVE",
"878 707 OFFCURVE",
"1149 707 CURVE SMOOTH",
"1473 707 LINE",
"1402 340 OFFCURVE",
"1156 152 OFFCURVE",
"733 152 CURVE SMOOTH",
"31 152 LINE",
"31 0 LINE"
);
}
);
width = 1755;
}
);
note = uni10B4A;
},
{
glyphname = uni10B4B;
lastChange = "2016-11-10 13:50:37 +0000";
layers = (
{
layerId = "4949C6E7-4176-455B-BA60-8247DAE0A971";
paths = (
{
closed = 1;
nodes = (
"211 0 LINE SMOOTH",
"346 0 OFFCURVE",
"461 20 OFFCURVE",
"557 60 CURVE SMOOTH",
"748 140 OFFCURVE",
"850 295 OFFCURVE",
"850 492 CURVE SMOOTH",
"850 728 OFFCURVE",
"675 890 OFFCURVE",
"412 895 CURVE",
"412 1556 LINE",
"231 1556 LINE",
"231 877 LINE",
"135 852 OFFCURVE",
"53 800 OFFCURVE",
"-14 719 CURVE",
"92 616 LINE",
"161 701 OFFCURVE",
"257 743 OFFCURVE",
"381 743 CURVE SMOOTH",
"545 743 OFFCURVE",
"664 640 OFFCURVE",
"664 487 CURVE SMOOTH",
"664 264 OFFCURVE",
"508 152 OFFCURVE",
"195 152 CURVE SMOOTH",
"123 152 LINE",
"123 0 LINE"
);
}
);
width = 963;
}
);
note = uni10B4B;
},
{
glyphname = uni10B4C;
lastChange = "2016-11-10 13:47:56 +0000";
layers = (
{
layerId = "4949C6E7-4176-455B-BA60-8247DAE0A971";
paths = (
{
closed = 1;
nodes = (
"179 -20 OFFCURVE",
"260 6 OFFCURVE",
"323 58 CURVE SMOOTH",
"448 161 OFFCURVE",
"522 373 OFFCURVE",
"563 762 CURVE",
"1042 762 LINE",
"1011 370 OFFCURVE",
"885 144 OFFCURVE",
"692 139 CURVE",
"692 -20 LINE",
"1005 -20 OFFCURVE",
"1216 348 OFFCURVE",
"1235 913 CURVE",
"573 913 LINE",
"594 1154 OFFCURVE",
"669 1245 OFFCURVE",
"850 1245 CURVE",
"897 1405 LINE",
"782 1405 OFFCURVE",
"691 1389 OFFCURVE",
"624 1358 CURVE SMOOTH",
"489 1294 OFFCURVE",
"422 1164 OFFCURVE",
"395 913 CURVE",
"255 921 OFFCURVE",
"203 967 OFFCURVE",
"190 1098 CURVE",
"10 1098 LINE",
"30 874 OFFCURVE",
"146 774 OFFCURVE",
"385 762 CURVE",
"365 585 OFFCURVE",
"343 455 OFFCURVE",
"319 371 CURVE SMOOTH",
"270 203 OFFCURVE",
"205 139 OFFCURVE",
"78 139 CURVE",
"78 -20 LINE"
);
}
);
width = 1350;
}
);
note = uni10B4C;
},
{
glyphname = uni10B4D;
lastChange = "2016-11-10 13:50:37 +0000";
layers = (
{
layerId = "4949C6E7-4176-455B-BA60-8247DAE0A971";
paths = (
{
closed = 1;
nodes = (
"1614 -340 LINE",
"1614 1098 LINE",
"1434 1098 LINE",
"1434 -188 LINE",
"30 -188 LINE",
"30 -340 LINE"
);
}
);
width = 1788;
}
);
note = uni10B4D;
},
{
glyphname = uni10B4E;
lastChange = "2016-11-10 13:50:37 +0000";
layers = (
{
layerId = "4949C6E7-4176-455B-BA60-8247DAE0A971";
paths = (
{
closed = 1;
nodes = (
"390 -20 OFFCURVE",
"590 272 OFFCURVE",
"590 795 CURVE SMOOTH",
"590 938 LINE",
"1102 938 LINE",
"1102 662 LINE SMOOTH",
"1102 375 OFFCURVE",
"1013 183 OFFCURVE",
"786 0 CURVE",
"1022 0 LINE",
"1215 177 OFFCURVE",
"1290 381 OFFCURVE",
"1290 662 CURVE SMOOTH",
"1290 1098 LINE",
"410 1098 LINE",
"410 793 LINE SMOOTH",
"410 365 OFFCURVE",
"280 144 OFFCURVE",
"31 139 CURVE",
"31 -20 LINE"
);
}
);
width = 1438;
}
);
note = uni10B4E;
},
{
glyphname = uni10B4F;
lastChange = "2016-11-10 13:50:37 +0000";
layers = (
{
layerId = "4949C6E7-4176-455B-BA60-8247DAE0A971";
paths = (
{
closed = 1;
nodes = (
"430 0 LINE SMOOTH",
"918 0 OFFCURVE",
"1163 180 OFFCURVE",
"1163 563 CURVE SMOOTH",
"1163 824 OFFCURVE",
"1010 987 OFFCURVE",
"762 987 CURVE SMOOTH",
"724 987 OFFCURVE",
"678 983 OFFCURVE",
"624 974 CURVE SMOOTH",
"569 965 OFFCURVE",
"527 961 OFFCURVE",
"498 961 CURVE SMOOTH",
"422 961 OFFCURVE",
"387 1001 OFFCURVE",
"387 1098 CURVE",
"207 1098 LINE",
"207 893 OFFCURVE",
"294 807 OFFCURVE",
"477 807 CURVE SMOOTH",
"503 807 OFFCURVE",
"542 812 OFFCURVE",
"594 821 CURVE SMOOTH",
"645 830 OFFCURVE",
"686 834 OFFCURVE",
"717 834 CURVE SMOOTH",
"894 834 OFFCURVE",
"979 732 OFFCURVE",
"979 551 CURVE SMOOTH",
"979 270 OFFCURVE",
"812 154 OFFCURVE",
"432 154 CURVE SMOOTH",
"31 154 LINE",
"31 0 LINE"
);
}
);
width = 1276;
}
);
note = uni10B4F;
},
{
glyphname = uni10B50;
lastChange = "2016-11-10 13:50:37 +0000";
layers = (
{
layerId = "4949C6E7-4176-455B-BA60-8247DAE0A971";
paths = (
{
closed = 1;
nodes = (
"400 -20 OFFCURVE",
"618 317 OFFCURVE",
"618 901 CURVE",
"747 734 OFFCURVE",
"929 630 OFFCURVE",
"1163 590 CURVE",
"1130 327 OFFCURVE",
"959 139 OFFCURVE",
"754 139 CURVE",
"754 -20 LINE",
"871 -20 OFFCURVE",
"976 11 OFFCURVE",
"1068 74 CURVE SMOOTH",
"1252 198 OFFCURVE",
"1362 434 OFFCURVE",
"1374 737 CURVE",
"985 737 OFFCURVE",
"726 915 OFFCURVE",
"543 1335 CURVE",
"365 1335 LINE",
"410 1187 OFFCURVE",
"442 1005 OFFCURVE",
"442 901 CURVE SMOOTH",
"442 409 OFFCURVE",
"294 142 OFFCURVE",
"31 139 CURVE",
"31 -20 LINE"
);
}
);
width = 1452;
}
);
note = uni10B50;
},
{
glyphname = uni10B51;
lastChange = "2016-11-10 13:50:37 +0000";
layers = (
{
layerId = "4949C6E7-4176-455B-BA60-8247DAE0A971";
paths = (
{
closed = 1;
nodes = (
"962 -492 LINE SMOOTH",
"1293 -492 OFFCURVE",
"1455 -357 OFFCURVE",
"1523 0 CURVE SMOOTH",
"1671 782 LINE",
"1697 695 OFFCURVE",
"1727 628 OFFCURVE",
"1761 580 CURVE SMOOTH",
"1828 483 OFFCURVE",
"1913 444 OFFCURVE",
"2084 444 CURVE SMOOTH",
"2340 444 LINE",
"2312 486 OFFCURVE",
"2290 525 OFFCURVE",
"2275 561 CURVE SMOOTH",
"2244 633 OFFCURVE",
"2232 684 OFFCURVE",
"2232 809 CURVE SMOOTH",
"2232 1098 LINE",
"2052 1098 LINE",
"2052 811 LINE SMOOTH",
"2052 718 OFFCURVE",
"2061 649 OFFCURVE",
"2078 604 CURVE",
"1953 604 OFFCURVE",
"1905 643 OFFCURVE",
"1836 838 CURVE SMOOTH",
"1744 1098 LINE",
"1558 1098 LINE",
"1343 8 LINE SMOOTH",
"1295 -237 OFFCURVE",
"1177 -340 OFFCURVE",
"962 -340 CURVE SMOOTH",
"30 -340 LINE",
"30 -492 LINE"
);
}
);
width = 2439;
}
);
note = uni10B51;
},
{
glyphname = uni10B52;
lastChange = "2016-11-10 13:50:37 +0000";
layers = (
{
layerId = "4949C6E7-4176-455B-BA60-8247DAE0A971";
paths = (
{
closed = 1;
nodes = (
"286 -20 OFFCURVE",
"467 265 OFFCURVE",
"510 766 CURVE",
"545 763 OFFCURVE",
"605 762 OFFCURVE",
"688 762 CURVE SMOOTH",
"936 762 LINE",
"905 353 OFFCURVE",
"791 145 OFFCURVE",
"596 139 CURVE",
"596 -20 LINE",
"917 -20 OFFCURVE",
"1107 318 OFFCURVE",
"1124 913 CURVE",
"786 913 LINE SMOOTH",
"555 913 OFFCURVE",
"406 922 OFFCURVE",
"324 944 CURVE SMOOTH",
"242 966 OFFCURVE",
"206 998 OFFCURVE",
"190 1098 CURVE",
"10 1098 LINE",
"21 1019 OFFCURVE",
"37 962 OFFCURVE",
"60 926 CURVE SMOOTH",
"104 854 OFFCURVE",
"188 808 OFFCURVE",
"332 784 CURVE",
"315 562 OFFCURVE",
"278 400 OFFCURVE",
"221 297 CURVE SMOOTH",
"163 194 OFFCURVE",
"86 142 OFFCURVE",
"-10 139 CURVE",
"-10 -20 LINE"
);
}
);
width = 1239;
}
);
note = uni10B52;
},
{
glyphname = uni10B53;
lastChange = "2016-11-10 13:50:37 +0000";
layers = (
{
layerId = "4949C6E7-4176-455B-BA60-8247DAE0A971";
paths = (
{
closed = 1;
nodes = (
"176 0 LINE SMOOTH",
"437 0 OFFCURVE",
"644 29 OFFCURVE",
"797 86 CURVE SMOOTH",
"1104 200 OFFCURVE",
"1242 435 OFFCURVE",
"1243 858 CURVE",
"612 858 LINE SMOOTH",
"413 858 OFFCURVE",
"352 918 OFFCURVE",
"352 1098 CURVE",
"172 1098 LINE",
"172 814 OFFCURVE",
"292 707 OFFCURVE",
"616 707 CURVE SMOOTH",
"1049 707 LINE",
"1042 330 OFFCURVE",
"757 152 OFFCURVE",
"170 152 CURVE SMOOTH",
"78 152 LINE",
"78 0 LINE"
);
}
);
width = 1307;
}
);
note = uni10B53;
},
{
glyphname = uni10B54;
lastChange = "2016-11-10 13:50:37 +0000";
layers = (
{
layerId = "4949C6E7-4176-455B-BA60-8247DAE0A971";
paths = (
{
closed = 1;
nodes = (
"338 -143 LINE",
"358 -86 OFFCURVE",
"372 -38 OFFCURVE",
"381 0 CURVE",
"657 85 OFFCURVE",
"855 205 OFFCURVE",
"1071 418 CURVE",
"967 547 LINE",
"783 375 OFFCURVE",
"584 245 OFFCURVE",
"412 176 CURVE",
"421 255 OFFCURVE",
"427 374 OFFCURVE",
"430 532 CURVE",
"664 645 OFFCURVE",
"868 796 OFFCURVE",
"1042 987 CURVE",
"936 1118 LINE",
"783 951 OFFCURVE",
"612 814 OFFCURVE",
"424 705 CURVE",
"397 990 OFFCURVE",
"290 1114 OFFCURVE",
"41 1114 CURVE",
"41 963 LINE",
"166 956 OFFCURVE",
"208 908 OFFCURVE",
"232 785 CURVE SMOOTH",
"244 724 OFFCURVE",
"250 638 OFFCURVE",
"250 528 CURVE SMOOTH",
"250 439 OFFCURVE",
"247 357 OFFCURVE",
"242 283 CURVE SMOOTH",
"231 135 OFFCURVE",
"217 42 OFFCURVE",
"162 -143 CURVE"
);
}
);
width = 1206;
}
);
note = uni10B54;
},
{
glyphname = uni10B55;
lastChange = "2016-11-10 13:50:37 +0000";
layers = (
{
layerId = "4949C6E7-4176-455B-BA60-8247DAE0A971";
paths = (
{
closed = 1;
nodes = (
"279 0 LINE",
"374 119 OFFCURVE",
"439 247 OFFCURVE",
"480 384 CURVE SMOOTH",
"520 520 OFFCURVE",
"538 667 OFFCURVE",
"539 823 CURVE",
"607 908 OFFCURVE",
"712 967 OFFCURVE",
"845 967 CURVE SMOOTH",
"1001 967 OFFCURVE",
"1086 873 OFFCURVE",
"1086 701 CURVE SMOOTH",
"1086 581 OFFCURVE",
"1056 448 OFFCURVE",
"1006 324 CURVE SMOOTH",
"956 200 OFFCURVE",
"886 84 OFFCURVE",
"807 0 CURVE",
"1022 0 LINE",
"1091 80 OFFCURVE",
"1154 197 OFFCURVE",
"1199 322 CURVE SMOOTH",
"1244 446 OFFCURVE",
"1272 580 OFFCURVE",
"1272 693 CURVE SMOOTH",
"1272 812 OFFCURVE",
"1244 918 OFFCURVE",
"1179 995 CURVE SMOOTH",
"1114 1071 OFFCURVE",
"1012 1118 OFFCURVE",
"867 1118 CURVE SMOOTH",
"731 1118 OFFCURVE",
"618 1075 OFFCURVE",
"527 1014 CURVE",
"508 1157 OFFCURVE",
"471 1263 OFFCURVE",
"444 1335 CURVE",
"264 1335 LINE",
"329 1175 OFFCURVE",
"362 1009 OFFCURVE",
"362 838 CURVE SMOOTH",
"362 678 OFFCURVE",
"345 532 OFFCURVE",
"299 394 CURVE SMOOTH",
"253 256 OFFCURVE",
"179 125 OFFCURVE",
"70 0 CURVE"
);
}
);
width = 1414;
}
);
note = uni10B55;
},
{
glyphname = uni10B58;
lastChange = "2016-11-10 13:50:37 +0000";
layers = (
{
layerId = "4949C6E7-4176-455B-BA60-8247DAE0A971";
paths = (
{
closed = 1;
nodes = (
"297 -16 OFFCURVE",
"430 129 OFFCURVE",
"430 418 CURVE SMOOTH",
"430 1462 LINE",
"250 1462 LINE",
"250 418 LINE SMOOTH",
"250 223 OFFCURVE",
"188 143 OFFCURVE",
"41 143 CURVE",
"41 -16 LINE"
);
}
);
width = 650;
}
);
note = uni10B58;
},
{
glyphname = uni10B59;
lastChange = "2016-11-10 13:50:37 +0000";
layers = (
{
layerId = "4949C6E7-4176-455B-BA60-8247DAE0A971";
paths = (
{
closed = 1;
nodes = (
"749 -16 OFFCURVE",
"881 133 OFFCURVE",
"881 418 CURVE SMOOTH",
"881 1462 LINE",
"700 1462 LINE",
"700 418 LINE SMOOTH",
"700 223 OFFCURVE",
"640 143 OFFCURVE",
"492 143 CURVE",
"492 -16 LINE"
);
},
{
closed = 1;
nodes = (
"297 -16 OFFCURVE",
"430 129 OFFCURVE",
"430 418 CURVE SMOOTH",
"430 1462 LINE",
"250 1462 LINE",
"250 418 LINE SMOOTH",
"250 223 OFFCURVE",
"188 143 OFFCURVE",
"41 143 CURVE",
"41 -16 LINE"
);
}
);
width = 1101;
}
);
note = uni10B59;
},
{
glyphname = uni10B5A;
lastChange = "2016-11-10 13:50:37 +0000";
layers = (
{
layerId = "4949C6E7-4176-455B-BA60-8247DAE0A971";
paths = (
{
closed = 1;
nodes = (
"1198 -16 OFFCURVE",
"1331 129 OFFCURVE",
"1331 418 CURVE SMOOTH",
"1331 1462 LINE",
"1151 1462 LINE",
"1151 418 LINE SMOOTH",
"1151 223 OFFCURVE",
"1089 143 OFFCURVE",
"942 143 CURVE",
"942 -16 LINE"
);
},
{
closed = 1;
nodes = (
"297 -16 OFFCURVE",
"430 129 OFFCURVE",
"430 418 CURVE SMOOTH",
"430 1462 LINE",
"250 1462 LINE",
"250 418 LINE SMOOTH",
"250 223 OFFCURVE",
"188 143 OFFCURVE",
"41 143 CURVE",
"41 -16 LINE"
);
},
{
closed = 1;
nodes = (
"749 -16 OFFCURVE",
"881 133 OFFCURVE",
"881 418 CURVE SMOOTH",
"881 1462 LINE",
"700 1462 LINE",
"700 418 LINE SMOOTH",
"700 223 OFFCURVE",
"640 143 OFFCURVE",
"492 143 CURVE",
"492 -16 LINE"
);
}
);
width = 1551;
}
);
note = uni10B5A;
},
{
glyphname = uni10B5B;
lastChange = "2016-11-10 13:50:37 +0000";
layers = (
{
layerId = "4949C6E7-4176-455B-BA60-8247DAE0A971";
paths = (
{
closed = 1;
nodes = (
"1650 -16 OFFCURVE",
"1782 133 OFFCURVE",
"1782 418 CURVE SMOOTH",
"1782 1462 LINE",
"1602 1462 LINE",
"1602 418 LINE SMOOTH",
"1602 223 OFFCURVE",
"1540 143 OFFCURVE",
"1393 143 CURVE",
"1393 -16 LINE"
);
},
{
closed = 1;
nodes = (
"297 -16 OFFCURVE",
"430 129 OFFCURVE",
"430 418 CURVE SMOOTH",
"430 1462 LINE",
"250 1462 LINE",
"250 418 LINE SMOOTH",
"250 223 OFFCURVE",
"188 143 OFFCURVE",
"41 143 CURVE",
"41 -16 LINE"
);
},
{
closed = 1;
nodes = (
"749 -16 OFFCURVE",
"881 133 OFFCURVE",
"881 418 CURVE SMOOTH",
"881 1462 LINE",
"700 1462 LINE",
"700 418 LINE SMOOTH",
"700 223 OFFCURVE",
"640 143 OFFCURVE",
"492 143 CURVE",
"492 -16 LINE"
);
},
{
closed = 1;
nodes = (
"1198 -16 OFFCURVE",
"1331 129 OFFCURVE",
"1331 418 CURVE SMOOTH",
"1331 1462 LINE",
"1151 1462 LINE",
"1151 418 LINE SMOOTH",
"1151 223 OFFCURVE",
"1089 143 OFFCURVE",
"942 143 CURVE",
"942 -16 LINE"
);
}
);
width = 2002;
}
);
note = uni10B5B;
},
{
glyphname = uni10B5C;
lastChange = "2016-11-10 13:50:37 +0000";
layers = (
{
layerId = "4949C6E7-4176-455B-BA60-8247DAE0A971";
paths = (
{
closed = 1;
nodes = (
"1223 -20 LINE",
"1223 139 LINE",
"741 139 OFFCURVE",
"434 357 OFFCURVE",
"301 793 CURVE",
"378 722 OFFCURVE",
"492 686 OFFCURVE",
"645 686 CURVE SMOOTH",
"949 686 OFFCURVE",
"1142 839 OFFCURVE",
"1161 1098 CURVE",
"981 1098 LINE",
"960 938 OFFCURVE",
"838 846 OFFCURVE",
"631 846 CURVE SMOOTH",
"416 846 OFFCURVE",
"299 917 OFFCURVE",
"230 1098 CURVE",
"80 1098 LINE",
"91 877 OFFCURVE",
"144 680 OFFCURVE",
"240 507 CURVE SMOOTH",
"431 162 OFFCURVE",
"758 -20 OFFCURVE",
"1170 -20 CURVE SMOOTH"
);
}
);
width = 1343;
}
);
note = uni10B5C;
},
{
glyphname = uni10B5D;
lastChange = "2016-11-10 13:50:37 +0000";
layers = (
{
layerId = "4949C6E7-4176-455B-BA60-8247DAE0A971";
paths = (
{
closed = 1;
nodes = (
"545 0 LINE SMOOTH",
"996 0 OFFCURVE",
"1233 203 OFFCURVE",
"1233 602 CURVE SMOOTH",
"1233 926 OFFCURVE",
"1066 1118 OFFCURVE",
"774 1118 CURVE SMOOTH",
"701 1118 OFFCURVE",
"634 1101 OFFCURVE",
"573 1067 CURVE SMOOTH",
"450 999 OFFCURVE",
"371 870 OFFCURVE",
"371 733 CURVE SMOOTH",
"371 661 OFFCURVE",
"389 595 OFFCURVE",
"424 536 CURVE SMOOTH",
"494 417 OFFCURVE",
"622 350 OFFCURVE",
"774 350 CURVE SMOOTH",
"877 350 OFFCURVE",
"966 382 OFFCURVE",
"1040 446 CURVE",
"997 262 OFFCURVE",
"809 160 OFFCURVE",
"528 160 CURVE SMOOTH",
"80 160 LINE",
"80 0 LINE"
);
},
{
closed = 1;
nodes = (
"659 502 OFFCURVE",
"559 597 OFFCURVE",
"559 733 CURVE SMOOTH",
"559 873 OFFCURVE",
"649 967 OFFCURVE",
"792 967 CURVE SMOOTH",
"933 967 OFFCURVE",
"1028 870 OFFCURVE",
"1028 733 CURVE SMOOTH",
"1028 606 OFFCURVE",
"924 502 OFFCURVE",
"792 502 CURVE SMOOTH"
);
}
);
width = 1353;
}
);
note = uni10B5D;
},
{
glyphname = uni10B5E;
lastChange = "2016-11-10 13:50:37 +0000";
layers = (
{
layerId = "4949C6E7-4176-455B-BA60-8247DAE0A971";
paths = (
{
closed = 1;
nodes = (
"1783 0 LINE",
"1783 160 LINE",
"490 160 LINE SMOOTH",
"366 160 OFFCURVE",
"304 210 OFFCURVE",
"304 311 CURVE SMOOTH",
"304 380 OFFCURVE",
"353 426 OFFCURVE",
"449 459 CURVE SMOOTH",
"556 496 OFFCURVE",
"627 526 OFFCURVE",
"660 549 CURVE SMOOTH",
"727 596 OFFCURVE",
"761 657 OFFCURVE",
"761 748 CURVE SMOOTH",
"761 852 OFFCURVE",
"718 922 OFFCURVE",
"587 981 CURVE SMOOTH",
"530 1006 OFFCURVE",
"493 1026 OFFCURVE",
"474 1040 CURVE SMOOTH",
"436 1068 OFFCURVE",
"413 1101 OFFCURVE",
"413 1153 CURVE SMOOTH",
"413 1245 OFFCURVE",
"477 1300 OFFCURVE",
"585 1300 CURVE SMOOTH",
"661 1300 OFFCURVE",
"733 1256 OFFCURVE",
"810 1167 CURVE SMOOTH",
"891 1073 OFFCURVE",
"953 1010 OFFCURVE",
"995 977 CURVE SMOOTH",
"1078 912 OFFCURVE",
"1166 877 OFFCURVE",
"1282 877 CURVE SMOOTH",
"1502 877 OFFCURVE",
"1631 1001 OFFCURVE",
"1631 1202 CURVE SMOOTH",
"1631 1413 OFFCURVE",
"1498 1528 OFFCURVE",
"1258 1528 CURVE",
"1258 1368 LINE",
"1395 1368 OFFCURVE",
"1447 1313 OFFCURVE",
"1447 1202 CURVE SMOOTH",
"1447 1091 OFFCURVE",
"1402 1036 OFFCURVE",
"1287 1036 CURVE SMOOTH",
"1188 1036 OFFCURVE",
"1113 1081 OFFCURVE",
"1034 1173 CURVE SMOOTH",
"967 1251 LINE SMOOTH",
"918 1308 OFFCURVE",
"875 1350 OFFCURVE",
"839 1377 CURVE SMOOTH",
"767 1430 OFFCURVE",
"686 1460 OFFCURVE",
"585 1460 CURVE SMOOTH",
"520 1460 OFFCURVE",
"460 1446 OFFCURVE",
"405 1418 CURVE SMOOTH",
"295 1362 OFFCURVE",
"228 1258 OFFCURVE",
"228 1153 CURVE SMOOTH",
"228 1104 OFFCURVE",
"235 1063 OFFCURVE",
"250 1028 CURVE SMOOTH",
"279 959 OFFCURVE",
"321 919 OFFCURVE",
"466 863 CURVE SMOOTH",
"539 835 OFFCURVE",
"576 797 OFFCURVE",
"576 741 CURVE SMOOTH",
"576 681 OFFCURVE",
"532 644 OFFCURVE",
"432 612 CURVE SMOOTH",
"334 581 OFFCURVE",
"267 553 OFFCURVE",
"231 529 CURVE SMOOTH",
"159 481 OFFCURVE",
"120 409 OFFCURVE",
"120 309 CURVE SMOOTH",
"120 114 OFFCURVE",
"261 0 OFFCURVE",
"490 0 CURVE SMOOTH"
);
}
);
width = 1863;
}
);
note = uni10B5E;
},
{
glyphname = uni10B5F;
lastChange = "2016-11-10 13:50:37 +0000";
layers = (
{
layerId = "4949C6E7-4176-455B-BA60-8247DAE0A971";
paths = (
{
closed = 1;
nodes = (
"545 0 LINE SMOOTH",
"997 0 OFFCURVE",
"1233 190 OFFCURVE",
"1233 557 CURVE SMOOTH",
"1233 844 OFFCURVE",
"1079 1009 OFFCURVE",
"792 1030 CURVE",
"792 1462 LINE",
"612 1462 LINE",
"612 1024 LINE",
"519 1009 OFFCURVE",
"440 987 OFFCURVE",
"373 956 CURVE",
"373 795 LINE",
"472 843 OFFCURVE",
"600 874 OFFCURVE",
"715 874 CURVE SMOOTH",
"939 874 OFFCURVE",
"1046 766 OFFCURVE",
"1046 547 CURVE SMOOTH",
"1046 276 OFFCURVE",
"889 160 OFFCURVE",
"528 160 CURVE SMOOTH",
"80 160 LINE",
"80 0 LINE"
);
}
);
width = 1353;
}
);
note = uni10B5F;
},
{
glyphname = uni10B4D.alt01;
lastChange = "2016-11-10 13:50:37 +0000";
layers = (
{
layerId = "4949C6E7-4176-455B-BA60-8247DAE0A971";
paths = (
{
closed = 1;
nodes = (
"438 -340 LINE",
"438 1098 LINE",
"258 1098 LINE",
"258 -188 LINE",
"-1346 -188 LINE",
"-1346 -340 LINE"
);
}
);
width = 612;
}
);
note = uni10B4D.alt01;
},
{
glyphname = uni10B4D10B4D;
lastChange = "2016-11-10 13:50:37 +0000";
layers = (
{
layerId = "4949C6E7-4176-455B-BA60-8247DAE0A971";
paths = (
{
closed = 1;
nodes = (
"1958 -616 LINE",
"1958 1098 LINE",
"1778 1098 LINE",
"1778 -464 LINE",
"30 -464 LINE",
"30 -616 LINE"
);
},
{
closed = 1;
nodes = (
"1464 -340 LINE",
"1464 1098 LINE",
"1284 1098 LINE",
"1284 -188 LINE",
"30 -188 LINE",
"30 -340 LINE"
);
}
);
width = 2132;
}
);
note = uni10B4D10B4D;
},
{
glyphname = uni10B51.alt01;
lastChange = "2016-11-10 13:50:37 +0000";
layers = (
{
layerId = "4949C6E7-4176-455B-BA60-8247DAE0A971";
paths = (
{
closed = 1;
nodes = (
"-256 -492 LINE SMOOTH",
"75 -492 OFFCURVE",
"237 -357 OFFCURVE",
"305 0 CURVE SMOOTH",
"453 782 LINE",
"479 695 OFFCURVE",
"509 628 OFFCURVE",
"543 580 CURVE SMOOTH",
"610 483 OFFCURVE",
"695 444 OFFCURVE",
"866 444 CURVE SMOOTH",
"1122 444 LINE",
"1094 486 OFFCURVE",
"1072 525 OFFCURVE",
"1057 561 CURVE SMOOTH",
"1026 633 OFFCURVE",
"1014 684 OFFCURVE",
"1014 809 CURVE SMOOTH",
"1014 1098 LINE",
"834 1098 LINE",
"834 811 LINE SMOOTH",
"834 718 OFFCURVE",
"843 649 OFFCURVE",
"860 604 CURVE",
"735 604 OFFCURVE",
"687 643 OFFCURVE",
"618 838 CURVE SMOOTH",
"526 1098 LINE",
"340 1098 LINE",
"125 8 LINE SMOOTH",
"77 -237 OFFCURVE",
"-41 -340 OFFCURVE",
"-256 -340 CURVE SMOOTH",
"-1188 -340 LINE",
"-1188 -492 LINE"
);
}
);
width = 1221;
}
);
note = uni10B51.alt01;
},
{
glyphname = uni10B4210B45;
lastChange = "2016-11-10 13:50:37 +0000";
layers = (
{
layerId = "4949C6E7-4176-455B-BA60-8247DAE0A971";
paths = (
{
closed = 1;
nodes = (
"1040 -20 OFFCURVE",
"1235 38 OFFCURVE",
"1388 138 CURVE SMOOTH",
"1541 238 OFFCURVE",
"1656 380 OFFCURVE",
"1733 545 CURVE SMOOTH",
"1810 710 OFFCURVE",
"1851 901 OFFCURVE",
"1862 1098 CURVE",
"1704 1098 LINE",
"1562 879 OFFCURVE",
"1368 770 OFFCURVE",
"1121 770 CURVE SMOOTH",
"1078 770 OFFCURVE",
"1040 774 OFFCURVE",
"1006 783 CURVE",
"951 635 LINE",
"1000 623 OFFCURVE",
"1057 616 OFFCURVE",
"1121 616 CURVE SMOOTH",
"1323 616 OFFCURVE",
"1498 684 OFFCURVE",
"1647 821 CURVE",
"1592 621 OFFCURVE",
"1496 449 OFFCURVE",
"1356 326 CURVE SMOOTH",
"1216 203 OFFCURVE",
"1032 131 OFFCURVE",
"800 131 CURVE SMOOTH",
"727 131 OFFCURVE",
"663 136 OFFCURVE",
"607 148 CURVE",
"658 188 OFFCURVE",
"710 244 OFFCURVE",
"750 316 CURVE SMOOTH",
"790 387 OFFCURVE",
"817 472 OFFCURVE",
"817 572 CURVE SMOOTH",
"817 667 OFFCURVE",
"788 758 OFFCURVE",
"728 826 CURVE SMOOTH",
"668 893 OFFCURVE",
"576 937 OFFCURVE",
"451 937 CURVE SMOOTH",
"347 937 OFFCURVE",
"255 895 OFFCURVE",
"188 827 CURVE SMOOTH",
"120 759 OFFCURVE",
"80 665 OFFCURVE",
"80 561 CURVE SMOOTH",
"80 369 OFFCURVE",
"148 223 OFFCURVE",
"272 126 CURVE SMOOTH",
"396 29 OFFCURVE",
"576 -20 OFFCURVE",
"800 -20 CURVE SMOOTH"
);
},
{
closed = 1;
nodes = (
"314 293 OFFCURVE",
"266 408 OFFCURVE",
"266 559 CURVE SMOOTH",
"266 624 OFFCURVE",
"286 681 OFFCURVE",
"320 722 CURVE SMOOTH",
"354 762 OFFCURVE",
"399 786 OFFCURVE",
"454 786 CURVE SMOOTH",
"562 786 OFFCURVE",
"632 710 OFFCURVE",
"632 573 CURVE SMOOTH",
"632 498 OFFCURVE",
"611 430 OFFCURVE",
"575 370 CURVE SMOOTH",
"539 310 OFFCURVE",
"487 258 OFFCURVE",
"426 218 CURVE"
);
}
);
width = 1948;
}
);
note = uni10B4210B45;
},
{
glyphname = uni10B4710B45;
lastChange = "2016-11-10 13:50:37 +0000";
layers = (
{
layerId = "4949C6E7-4176-455B-BA60-8247DAE0A971";
paths = (
{
closed = 1;
nodes = (
"783 -20 OFFCURVE",
"897 17 OFFCURVE",
"986 78 CURVE SMOOTH",
"1075 138 OFFCURVE",
"1141 222 OFFCURVE",
"1192 318 CURVE SMOOTH",
"1243 413 OFFCURVE",
"1278 519 OFFCURVE",
"1306 623 CURVE",
"1367 248 OFFCURVE",
"1616 0 OFFCURVE",
"1937 0 CURVE SMOOTH",
"2115 0 LINE",
"2115 1098 LINE",
"1935 1098 LINE",
"1935 152 LINE",
"1739 152 OFFCURVE",
"1568 312 OFFCURVE",
"1472 599 CURVE SMOOTH",
"1425 743 OFFCURVE",
"1399 907 OFFCURVE",
"1396 1098 CURVE",
"1216 1098 LINE",
"1213 958 OFFCURVE",
"1191 804 OFFCURVE",
"1150 661 CURVE SMOOTH",
"1109 517 OFFCURVE",
"1046 385 OFFCURVE",
"965 289 CURVE SMOOTH",
"884 192 OFFCURVE",
"782 131 OFFCURVE",
"659 131 CURVE SMOOTH",
"638 131 OFFCURVE",
"617 132 OFFCURVE",
"597 134 CURVE",
"649 173 OFFCURVE",
"704 230 OFFCURVE",
"746 303 CURVE SMOOTH",
"788 376 OFFCURVE",
"817 465 OFFCURVE",
"817 572 CURVE SMOOTH",
"817 667 OFFCURVE",
"788 758 OFFCURVE",
"729 826 CURVE SMOOTH",
"669 893 OFFCURVE",
"581 937 OFFCURVE",
"461 937 CURVE SMOOTH",
"353 937 OFFCURVE",
"257 896 OFFCURVE",
"189 827 CURVE SMOOTH",
"121 758 OFFCURVE",
"80 659 OFFCURVE",
"80 544 CURVE SMOOTH",
"80 400 OFFCURVE",
"125 258 OFFCURVE",
"217 154 CURVE SMOOTH",
"309 49 OFFCURVE",
"448 -20 OFFCURVE",
"639 -20 CURVE SMOOTH"
);
},
{
closed = 1;
nodes = (
"313 281 OFFCURVE",
"266 408 OFFCURVE",
"266 544 CURVE SMOOTH",
"266 609 OFFCURVE",
"285 670 OFFCURVE",
"318 714 CURVE SMOOTH",
"351 758 OFFCURVE",
"396 786 OFFCURVE",
"451 786 CURVE SMOOTH",
"559 786 OFFCURVE",
"632 710 OFFCURVE",
"632 573 CURVE SMOOTH",
"632 416 OFFCURVE",
"551 284 OFFCURVE",
"414 205 CURVE"
);
}
);
width = 2289;
}
);
note = uni10B4710B45;
},
{
glyphname = uni10B4910B45;
lastChange = "2016-11-10 13:50:37 +0000";
layers = (
{
layerId = "4949C6E7-4176-455B-BA60-8247DAE0A971";
paths = (
{
closed = 1;
nodes = (
"784 -20 OFFCURVE",
"882 -10 OFFCURVE",
"971 18 CURVE SMOOTH",
"1059 46 OFFCURVE",
"1139 92 OFFCURVE",
"1197 163 CURVE SMOOTH",
"1255 234 OFFCURVE",
"1290 330 OFFCURVE",
"1290 459 CURVE SMOOTH",
"1290 1098 LINE",
"1110 1098 LINE",
"1110 438 LINE SMOOTH",
"1110 311 OFFCURVE",
"1060 235 OFFCURVE",
"983 190 CURVE SMOOTH",
"906 145 OFFCURVE",
"801 131 OFFCURVE",
"693 131 CURVE SMOOTH",
"660 131 OFFCURVE",
"630 133 OFFCURVE",
"602 138 CURVE",
"653 178 OFFCURVE",
"707 234 OFFCURVE",
"748 307 CURVE SMOOTH",
"788 379 OFFCURVE",
"817 468 OFFCURVE",
"817 572 CURVE SMOOTH",
"817 667 OFFCURVE",
"788 758 OFFCURVE",
"729 826 CURVE SMOOTH",
"669 893 OFFCURVE",
"581 937 OFFCURVE",
"461 937 CURVE SMOOTH",
"353 937 OFFCURVE",
"257 896 OFFCURVE",
"189 827 CURVE SMOOTH",
"121 758 OFFCURVE",
"80 659 OFFCURVE",
"80 544 CURVE SMOOTH",
"80 400 OFFCURVE",
"126 258 OFFCURVE",
"226 154 CURVE SMOOTH",
"325 49 OFFCURVE",
"477 -20 OFFCURVE",
"692 -20 CURVE SMOOTH"
);
},
{
closed = 1;
nodes = (
"315 286 OFFCURVE",
"266 411 OFFCURVE",
"266 544 CURVE SMOOTH",
"266 609 OFFCURVE",
"285 670 OFFCURVE",
"318 714 CURVE SMOOTH",
"351 758 OFFCURVE",
"396 786 OFFCURVE",
"451 786 CURVE SMOOTH",
"559 786 OFFCURVE",
"632 710 OFFCURVE",
"632 573 CURVE SMOOTH",
"632 417 OFFCURVE",
"555 289 OFFCURVE",
"422 209 CURVE"
);
}
);
width = 1464;
}
);
note = uni10B4910B45;
},
{
glyphname = uni10B4D10B45;
lastChange = "2016-11-10 13:50:37 +0000";
layers = (
{
layerId = "4949C6E7-4176-455B-BA60-8247DAE0A971";
paths = (
{
closed = 1;
nodes = (
"1029 -20 OFFCURVE",
"1199 23 OFFCURVE",
"1309 100 CURVE SMOOTH",
"1419 177 OFFCURVE",
"1470 290 OFFCURVE",
"1470 433 CURVE SMOOTH",
"1470 1098 LINE",
"1290 1098 LINE",
"1290 436 LINE SMOOTH",
"1290 321 OFFCURVE",
"1246 245 OFFCURVE",
"1163 198 CURVE SMOOTH",
"1080 150 OFFCURVE",
"960 131 OFFCURVE",
"809 131 CURVE SMOOTH",
"738 131 OFFCURVE",
"673 137 OFFCURVE",
"614 148 CURVE",
"663 188 OFFCURVE",
"715 244 OFFCURVE",
"753 316 CURVE SMOOTH",
"791 387 OFFCURVE",
"817 472 OFFCURVE",
"817 572 CURVE SMOOTH",
"817 667 OFFCURVE",
"788 758 OFFCURVE",
"729 826 CURVE SMOOTH",
"669 893 OFFCURVE",
"581 937 OFFCURVE",
"461 937 CURVE SMOOTH",
"353 937 OFFCURVE",
"257 896 OFFCURVE",
"189 827 CURVE SMOOTH",
"121 758 OFFCURVE",
"80 659 OFFCURVE",
"80 544 CURVE SMOOTH",
"80 449 OFFCURVE",
"99 355 OFFCURVE",
"144 271 CURVE SMOOTH",
"189 187 OFFCURVE",
"262 115 OFFCURVE",
"368 63 CURVE SMOOTH",
"474 11 OFFCURVE",
"615 -20 OFFCURVE",
"796 -20 CURVE SMOOTH"
);
},
{
closed = 1;
nodes = (
"315 287 OFFCURVE",
"266 400 OFFCURVE",
"266 544 CURVE SMOOTH",
"266 609 OFFCURVE",
"285 670 OFFCURVE",
"318 714 CURVE SMOOTH",
"351 758 OFFCURVE",
"396 786 OFFCURVE",
"451 786 CURVE SMOOTH",
"559 786 OFFCURVE",
"632 710 OFFCURVE",
"632 573 CURVE SMOOTH",
"632 421 OFFCURVE",
"559 295 OFFCURVE",
"432 215 CURVE"
);
}
);
width = 1644;
}
);
note = uni10B4D10B45;
},
{
glyphname = uni10B4F10B4B;
lastChange = "2016-11-10 13:50:37 +0000";
layers = (
{
layerId = "4949C6E7-4176-455B-BA60-8247DAE0A971";
paths = (
{
closed = 1;
nodes = (
"1072 0 LINE SMOOTH",
"1560 0 OFFCURVE",
"1805 180 OFFCURVE",
"1805 563 CURVE SMOOTH",
"1805 824 OFFCURVE",
"1652 987 OFFCURVE",
"1404 987 CURVE SMOOTH",
"1365 987 OFFCURVE",
"1321 983 OFFCURVE",
"1266 974 CURVE SMOOTH",
"1210 965 OFFCURVE",
"1169 961 OFFCURVE",
"1140 961 CURVE SMOOTH",
"1064 961 OFFCURVE",
"1029 1001 OFFCURVE",
"1029 1098 CURVE",
"849 1098 LINE",
"849 893 OFFCURVE",
"936 807 OFFCURVE",
"1119 807 CURVE SMOOTH",
"1146 807 OFFCURVE",
"1184 812 OFFCURVE",
"1236 821 CURVE SMOOTH",
"1285 830 OFFCURVE",
"1326 834 OFFCURVE",
"1359 834 CURVE SMOOTH",
"1536 834 OFFCURVE",
"1621 732 OFFCURVE",
"1621 551 CURVE SMOOTH",
"1621 270 OFFCURVE",
"1454 154 OFFCURVE",
"1074 154 CURVE SMOOTH",
"733 154 LINE SMOOTH",
"694 154 OFFCURVE",
"661 155 OFFCURVE",
"628 159 CURVE",
"675 200 OFFCURVE",
"722 256 OFFCURVE",
"758 325 CURVE SMOOTH",
"793 394 OFFCURVE",
"817 476 OFFCURVE",
"817 572 CURVE SMOOTH",
"817 667 OFFCURVE",
"788 758 OFFCURVE",
"729 826 CURVE SMOOTH",
"669 893 OFFCURVE",
"581 937 OFFCURVE",
"461 937 CURVE SMOOTH",
"424 937 OFFCURVE",
"388 932 OFFCURVE",
"354 923 CURVE",
"354 1556 LINE",
"173 1556 LINE",
"173 809 LINE",
"113 741 OFFCURVE",
"80 649 OFFCURVE",
"80 544 CURVE SMOOTH",
"80 407 OFFCURVE",
"120 272 OFFCURVE",
"221 170 CURVE SMOOTH",
"321 68 OFFCURVE",
"485 0 OFFCURVE",
"733 0 CURVE SMOOTH"
);
},
{
closed = 1;
nodes = (
"316 286 OFFCURVE",
"266 399 OFFCURVE",
"266 544 CURVE SMOOTH",
"266 609 OFFCURVE",
"285 670 OFFCURVE",
"318 714 CURVE SMOOTH",
"351 758 OFFCURVE",
"396 786 OFFCURVE",
"451 786 CURVE SMOOTH",
"559 786 OFFCURVE",
"632 710 OFFCURVE",
"632 573 CURVE SMOOTH",
"632 424 OFFCURVE",
"560 298 OFFCURVE",
"436 218 CURVE"
);
}
);
width = 1978;
}
);
note = uni10B4F10B4B;
},
{
glyphname = uni10B5310B45;
lastChange = "2016-11-10 13:50:37 +0000";
layers = (
{
layerId = "4949C6E7-4176-455B-BA60-8247DAE0A971";
paths = (
{
closed = 1;
nodes = (
"1041 0 LINE SMOOTH",
"1294 0 OFFCURVE",
"1515 61 OFFCURVE",
"1672 198 CURVE SMOOTH",
"1829 335 OFFCURVE",
"1923 550 OFFCURVE",
"1923 858 CURVE",
"1292 858 LINE SMOOTH",
"1092 858 OFFCURVE",
"1032 917 OFFCURVE",
"1032 1098 CURVE",
"852 1098 LINE",
"852 813 OFFCURVE",
"972 707 OFFCURVE",
"1296 707 CURVE SMOOTH",
"1729 707 LINE",
"1726 582 OFFCURVE",
"1689 478 OFFCURVE",
"1628 396 CURVE SMOOTH",
"1567 314 OFFCURVE",
"1480 252 OFFCURVE",
"1380 212 CURVE SMOOTH",
"1280 171 OFFCURVE",
"1166 151 OFFCURVE",
"1047 151 CURVE SMOOTH",
"868 151 LINE SMOOTH",
"779 151 OFFCURVE",
"701 158 OFFCURVE",
"633 170 CURVE",
"680 211 OFFCURVE",
"725 267 OFFCURVE",
"760 334 CURVE SMOOTH",
"795 401 OFFCURVE",
"817 480 OFFCURVE",
"817 572 CURVE SMOOTH",
"817 667 OFFCURVE",
"788 758 OFFCURVE",
"728 826 CURVE SMOOTH",
"668 893 OFFCURVE",
"576 937 OFFCURVE",
"451 937 CURVE SMOOTH",
"347 937 OFFCURVE",
"255 895 OFFCURVE",
"188 827 CURVE SMOOTH",
"120 759 OFFCURVE",
"80 665 OFFCURVE",
"80 561 CURVE SMOOTH",
"80 369 OFFCURVE",
"153 228 OFFCURVE",
"287 136 CURVE SMOOTH",
"421 44 OFFCURVE",
"615 0 OFFCURVE",
"862 0 CURVE SMOOTH"
);
},
{
closed = 1;
nodes = (
"323 300 OFFCURVE",
"266 410 OFFCURVE",
"266 559 CURVE SMOOTH",
"266 624 OFFCURVE",
"286 681 OFFCURVE",
"320 722 CURVE SMOOTH",
"354 762 OFFCURVE",
"399 786 OFFCURVE",
"454 786 CURVE SMOOTH",
"562 786 OFFCURVE",
"632 710 OFFCURVE",
"632 573 CURVE SMOOTH",
"632 432 OFFCURVE",
"560 312 OFFCURVE",
"447 232 CURVE"
);
}
);
width = 1987;
}
);
note = uni10B5310B45;
},
{
glyphname = uni10B5510B45;
lastChange = "2016-11-10 13:50:37 +0000";
layers = (
{
layerId = "4949C6E7-4176-455B-BA60-8247DAE0A971";
paths = (
{
closed = 1;
nodes = (
"836 -20 OFFCURVE",
"956 20 OFFCURVE",
"1046 92 CURVE SMOOTH",
"1136 164 OFFCURVE",
"1196 267 OFFCURVE",
"1234 392 CURVE SMOOTH",
"1272 516 OFFCURVE",
"1288 663 OFFCURVE",
"1289 823 CURVE",
"1357 908 OFFCURVE",
"1462 967 OFFCURVE",
"1595 967 CURVE SMOOTH",
"1751 967 OFFCURVE",
"1836 873 OFFCURVE",
"1836 701 CURVE SMOOTH",
"1836 581 OFFCURVE",
"1806 448 OFFCURVE",
"1756 324 CURVE SMOOTH",
"1706 200 OFFCURVE",
"1636 84 OFFCURVE",
"1557 0 CURVE",
"1772 0 LINE",
"1841 80 OFFCURVE",
"1904 197 OFFCURVE",
"1949 322 CURVE SMOOTH",
"1994 446 OFFCURVE",
"2022 580 OFFCURVE",
"2022 693 CURVE SMOOTH",
"2022 812 OFFCURVE",
"1994 918 OFFCURVE",
"1929 995 CURVE SMOOTH",
"1864 1071 OFFCURVE",
"1762 1118 OFFCURVE",
"1617 1118 CURVE SMOOTH",
"1481 1118 OFFCURVE",
"1368 1075 OFFCURVE",
"1277 1014 CURVE",
"1258 1157 OFFCURVE",
"1221 1263 OFFCURVE",
"1194 1335 CURVE",
"1014 1335 LINE",
"1079 1175 OFFCURVE",
"1112 1009 OFFCURVE",
"1112 838 CURVE SMOOTH",
"1112 723 OFFCURVE",
"1107 607 OFFCURVE",
"1087 503 CURVE SMOOTH",
"1066 398 OFFCURVE",
"1030 305 OFFCURVE",
"968 238 CURVE SMOOTH",
"906 171 OFFCURVE",
"817 131 OFFCURVE",
"693 131 CURVE SMOOTH",
"660 131 OFFCURVE",
"630 133 OFFCURVE",
"602 138 CURVE",
"653 178 OFFCURVE",
"707 234 OFFCURVE",
"748 307 CURVE SMOOTH",
"788 379 OFFCURVE",
"817 468 OFFCURVE",
"817 572 CURVE SMOOTH",
"817 667 OFFCURVE",
"788 758 OFFCURVE",
"729 826 CURVE SMOOTH",
"669 893 OFFCURVE",
"581 937 OFFCURVE",
"461 937 CURVE SMOOTH",
"353 937 OFFCURVE",
"257 896 OFFCURVE",
"189 827 CURVE SMOOTH",
"121 758 OFFCURVE",
"80 659 OFFCURVE",
"80 544 CURVE SMOOTH",
"80 400 OFFCURVE",
"123 258 OFFCURVE",
"219 154 CURVE SMOOTH",
"315 49 OFFCURVE",
"464 -20 OFFCURVE",
"679 -20 CURVE SMOOTH"
);
},
{
closed = 1;
nodes = (
"315 286 OFFCURVE",
"266 411 OFFCURVE",
"266 544 CURVE SMOOTH",
"266 609 OFFCURVE",
"285 670 OFFCURVE",
"318 714 CURVE SMOOTH",
"351 758 OFFCURVE",
"396 786 OFFCURVE",
"451 786 CURVE SMOOTH",
"559 786 OFFCURVE",
"632 710 OFFCURVE",
"632 573 CURVE SMOOTH",
"632 417 OFFCURVE",
"555 289 OFFCURVE",
"422 209 CURVE"
);
}
);
width = 2164;
}
);
note = uni10B5510B45;
},
{
glyphname = uni10B4D10B43;
lastChange = "2016-11-10 13:50:37 +0000";
layers = (
{
layerId = "4949C6E7-4176-455B-BA60-8247DAE0A971";
paths = (
{
closed = 1;
nodes = (
"1548 -216 LINE",
"1548 1098 LINE",
"1368 1098 LINE",
"1368 -64 LINE",
"70 -64 LINE",
"70 -216 LINE"
);
},
{
closed = 1;
nodes = (
"182 -594 LINE",
"201 -523 OFFCURVE",
"276 -488 OFFCURVE",
"373 -488 CURVE SMOOTH",
"480 -488 OFFCURVE",
"543 -523 OFFCURVE",
"563 -594 CURVE",
"686 -594 LINE",
"662 -434 OFFCURVE",
"554 -346 OFFCURVE",
"375 -346 CURVE SMOOTH",
"291 -346 OFFCURVE",
"218 -369 OFFCURVE",
"163 -412 CURVE SMOOTH",
"107 -456 OFFCURVE",
"70 -518 OFFCURVE",
"59 -594 CURVE"
);
},
{
closed = 1;
nodes = (
"178 78 LINE SMOOTH",
"411 78 OFFCURVE",
"599 99 OFFCURVE",
"748 148 CURVE SMOOTH",
"897 197 OFFCURVE",
"1009 276 OFFCURVE",
"1089 392 CURVE SMOOTH",
"1169 507 OFFCURVE",
"1218 659 OFFCURVE",
"1245 858 CURVE",
"727 858 LINE SMOOTH",
"586 858 OFFCURVE",
"493 869 OFFCURVE",
"435 905 CURVE SMOOTH",
"377 941 OFFCURVE",
"354 1001 OFFCURVE",
"354 1098 CURVE",
"174 1098 LINE",
"177 953 OFFCURVE",
"212 855 OFFCURVE",
"300 794 CURVE SMOOTH",
"387 733 OFFCURVE",
"524 707 OFFCURVE",
"729 707 CURVE SMOOTH",
"1030 707 LINE",
"995 538 OFFCURVE",
"920 418 OFFCURVE",
"791 341 CURVE SMOOTH",
"662 264 OFFCURVE",
"478 229 OFFCURVE",
"225 229 CURVE SMOOTH",
"80 229 LINE",
"80 78 LINE"
);
}
);
width = 1722;
}
);
note = uni10B4D10B43;
},
